<?xml version="1.0" encoding="UTF-8"?>
<svg xmlns="http://www.w3.org/2000/svg" xmlns:xlink="http://www.w3.org/1999/xlink" width="532.5pt" height="464.999988pt" viewBox="0 0 532.5 464.999988" version="1.2">
<defs>
<clipPath id="clip1">
  <path d="M 0 0.21875 L 532 0.21875 L 532 353 L 0 353 Z M 0 0.21875 "/>
</clipPath>
</defs>
<g id="surface1">
<g clip-path="url(#clip1)" clip-rule="nonzero">
<path style=" stroke:none;fill-rule:nonzero;fill:rgb(100%,100%,100%);fill-opacity:1;" d="M 35.46875 14.878906 C 24.488281 14.878906 15.542969 23.8125 15.542969 34.789062 L 15.542969 318.074219 C 15.542969 329.078125 24.488281 337.984375 35.46875 337.984375 L 497.777344 337.984375 C 508.757812 337.984375 517.703125 329.078125 517.703125 318.074219 L 517.703125 34.789062 C 517.703125 23.8125 508.757812 14.878906 497.777344 14.878906 Z M 497.777344 352.886719 L 35.46875 352.886719 C 16.273438 352.886719 0.628906 337.285156 0.628906 318.074219 L 0.628906 34.789062 C 0.628906 15.605469 16.273438 -0.0273438 35.46875 -0.0273438 L 497.777344 -0.0273438 C 516.972656 -0.0273438 532.617188 15.605469 532.617188 34.789062 L 532.617188 318.074219 C 532.617188 337.285156 516.972656 352.886719 497.777344 352.886719 "/>
</g>
<path style=" stroke:none;fill-rule:nonzero;fill:rgb(100%,100%,100%);fill-opacity:1;" d="M 525.160156 291.730469 L 8.085938 291.730469 L 8.085938 276.828125 L 525.160156 276.828125 L 525.160156 291.730469 "/>
<path style=" stroke:none;fill-rule:nonzero;fill:rgb(100%,100%,100%);fill-opacity:1;" d="M 209.324219 404.789062 L 194.667969 401.996094 L 205.796875 344.039062 L 220.421875 346.832031 L 209.324219 404.789062 "/>
<path style=" stroke:none;fill-rule:nonzero;fill:rgb(100%,100%,100%);fill-opacity:1;" d="M 323.980469 404.789062 L 312.882812 346.832031 L 327.507812 344.039062 L 338.632812 401.996094 L 323.980469 404.789062 "/>
<path style=" stroke:none;fill-rule:nonzero;fill:rgb(100%,100%,100%);fill-opacity:1;" d="M 186.28125 410.84375 C 175.734375 410.84375 167.171875 419.402344 167.171875 429.9375 C 167.171875 440.476562 175.734375 449.0625 186.28125 449.0625 L 346.964844 449.0625 C 357.511719 449.0625 366.074219 440.476562 366.074219 429.9375 C 366.074219 419.402344 357.511719 410.84375 346.964844 410.84375 Z M 346.964844 463.96875 L 186.28125 463.96875 C 167.519531 463.96875 152.253906 448.714844 152.253906 429.9375 C 152.253906 411.191406 167.519531 395.941406 186.28125 395.941406 L 346.964844 395.941406 C 365.726562 395.941406 380.992188 411.191406 380.992188 429.9375 C 380.992188 448.714844 365.726562 463.96875 346.964844 463.96875 "/>
<path style=" stroke:none;fill-rule:nonzero;fill:rgb(100%,100%,100%);fill-opacity:1;" d="M 218.5 209.703125 C 216.546875 209.703125 214.59375 208.945312 213.136719 207.433594 C 212.964844 207.226562 181.472656 173.898438 171.976562 163.855469 C 167.78125 159.429688 167.78125 152.445312 171.976562 147.992188 L 213.082031 104.472656 C 215.933594 101.476562 220.625 101.332031 223.625 104.183594 C 226.625 107.007812 226.773438 111.722656 223.945312 114.71875 L 185 155.9375 C 196.273438 167.871094 223.394531 196.574219 223.917969 197.128906 C 226.742188 200.097656 226.625 204.8125 223.65625 207.636719 C 222.199219 209.03125 220.363281 209.703125 218.5 209.703125 "/>
<path style=" stroke:none;fill-rule:nonzero;fill:rgb(100%,100%,100%);fill-opacity:1;" d="M 350.402344 158.207031 L 350.492188 158.207031 Z M 314.746094 209.703125 C 312.882812 209.703125 311.046875 209.03125 309.589844 207.636719 C 306.621094 204.8125 306.503906 200.097656 309.328125 197.128906 C 309.851562 196.574219 336.972656 167.84375 348.246094 155.9375 L 309.300781 114.71875 C 306.472656 111.722656 306.621094 107.007812 309.621094 104.183594 C 312.621094 101.332031 317.308594 101.476562 320.164062 104.472656 L 361.269531 147.992188 C 365.464844 152.445312 365.464844 159.429688 361.269531 163.855469 C 351.773438 173.898438 320.28125 207.226562 320.105469 207.433594 C 318.652344 208.945312 316.699219 209.703125 314.746094 209.703125 "/>
<path style=" stroke:none;fill-rule:nonzero;fill:rgb(100%,100%,100%);fill-opacity:1;" d="M 251.882812 223.9375 C 251.300781 223.9375 250.6875 223.878906 250.105469 223.734375 C 246.085938 222.773438 243.636719 218.726562 244.601562 214.738281 L 274.136719 93.585938 C 275.128906 89.597656 279.148438 87.125 283.140625 88.113281 C 287.160156 89.105469 289.605469 93.121094 288.644531 97.136719 L 259.105469 218.261719 C 258.292969 221.664062 255.234375 223.9375 251.882812 223.9375 "/>
</g>
</svg>
